<svg width="22" height="18" viewBox="0 0 22 18" fill="none" xmlns="http://www.w3.org/2000/svg">
<path fill-rule="evenodd" clip-rule="evenodd" d="M8.94358 0.25H13.0564C14.8942 0.249984 16.3498 0.249972 17.489 0.403135C18.6614 0.560763 19.6104 0.89288 20.3588 1.64124C21.1071 2.38961 21.4392 3.33856 21.5969 4.51098C21.75 5.65019 21.75 7.10583 21.75 8.94359V9.05641C21.75 10.8942 21.75 12.3498 21.5969 13.489C21.4392 14.6614 21.1071 15.6104 20.3588 16.3588C19.6104 17.1071 18.6614 17.4392 17.489 17.5969C16.3498 17.75 14.8942 17.75 13.0564 17.75H8.94359C7.10583 17.75 5.65019 17.75 4.51098 17.5969C3.33856 17.4392 2.38961 17.1071 1.64124 16.3588C0.89288 15.6104 0.560763 14.6614 0.403135 13.489C0.249972 12.3498 0.249984 10.8942 0.25 9.05642V8.94358C0.249984 7.10582 0.249972 5.65019 0.403135 4.51098C0.560763 3.33856 0.89288 2.38961 1.64124 1.64124C2.38961 0.89288 3.33856 0.560763 4.51098 0.403135C5.65019 0.249972 7.10582 0.249984 8.94358 0.25ZM4.71085 1.88976C3.70476 2.02502 3.12511 2.27869 2.7019 2.7019C2.27869 3.12511 2.02502 3.70476 1.88976 4.71085C1.75159 5.73851 1.75 7.09318 1.75 9C1.75 10.9068 1.75159 12.2615 1.88976 13.2892C2.02502 14.2952 2.27869 14.8749 2.7019 15.2981C3.12511 15.7213 3.70476 15.975 4.71085 16.1102C5.73851 16.2484 7.09318 16.25 9 16.25H13C14.9068 16.25 16.2615 16.2484 17.2892 16.1102C18.2952 15.975 18.8749 15.7213 19.2981 15.2981C19.7213 14.8749 19.975 14.2952 20.1102 13.2892C20.2484 12.2615 20.25 10.9068 20.25 9C20.25 7.09318 20.2484 5.73851 20.1102 4.71085C19.975 3.70476 19.7213 3.12511 19.2981 2.7019C18.8749 2.27869 18.2952 2.02502 17.2892 1.88976C16.2615 1.75159 14.9068 1.75 13 1.75H9C7.09318 1.75 5.73851 1.75159 4.71085 1.88976ZM4.42383 4.51986C4.68901 4.20165 5.16193 4.15866 5.48014 4.42383L7.63903 6.22291C8.57199 7.00038 9.21973 7.53842 9.76658 7.89013C10.2959 8.23059 10.6549 8.34488 11 8.34488C11.3451 8.34488 11.7041 8.23059 12.2334 7.89013C12.7803 7.53842 13.428 7.00038 14.361 6.22291L16.5199 4.42383C16.8381 4.15866 17.311 4.20165 17.5762 4.51986C17.8413 4.83807 17.7983 5.31099 17.4801 5.57617L15.2836 7.40658C14.3973 8.14523 13.6789 8.74392 13.0448 9.15172C12.3843 9.57653 11.7411 9.84488 11 9.84488C10.2589 9.84488 9.61567 9.57653 8.95518 9.15172C8.32112 8.74392 7.60272 8.14524 6.71636 7.40658L4.51986 5.57617C4.20165 5.31099 4.15866 4.83807 4.42383 4.51986Z" fill="#AFB2BF"/>
</svg>
