<svg width="21" height="21" viewBox="0 0 21 21" fill="none" xmlns="http://www.w3.org/2000/svg">
<path fill-rule="evenodd" clip-rule="evenodd" d="M17.1437 1.63083C15.9737 1.83896 14.3964 2.36262 12.1827 3.10051L7.17141 4.77094C5.39139 5.36428 4.1021 5.79468 3.19146 6.182C2.23939 6.58693 1.90071 6.86919 1.79071 7.0584C1.45191 7.64118 1.45191 8.36095 1.79071 8.94374C1.90071 9.13295 2.23939 9.41521 3.19146 9.82014C4.1021 10.2075 5.39139 10.6379 7.17141 11.2312C7.19952 11.2406 7.22727 11.2498 7.25468 11.2589C7.63431 11.3852 7.94795 11.4895 8.22198 11.6328L13.5454 6.36811C13.8471 6.06974 14.3335 6.07243 14.6319 6.37413C14.9303 6.67583 14.9276 7.16229 14.6259 7.46067L9.32593 12.7022C9.49116 12.994 9.603 13.3302 9.74108 13.7453C9.7502 13.7727 9.75943 13.8005 9.7688 13.8286C10.3621 15.6086 10.7925 16.8979 11.1799 17.8085C11.5848 18.7606 11.867 19.0993 12.0563 19.2093C12.639 19.5481 13.3588 19.5481 13.9416 19.2093C14.1308 19.0993 14.4131 18.7606 14.818 17.8085C15.2053 16.8979 15.6357 15.6086 16.2291 13.8286L17.8995 8.81732C18.6374 6.60363 19.161 5.02627 19.3692 3.85629C19.5783 2.68074 19.4185 2.1814 19.1185 1.88146C18.8186 1.58152 18.3193 1.42171 17.1437 1.63083ZM16.8746 0.117969C18.1768 -0.11368 19.3496 -0.0605873 20.2051 0.79491C21.0606 1.65041 21.1137 2.82322 20.882 4.12542C20.6518 5.41975 20.0903 7.10415 19.3794 9.23669L17.6745 14.3515C17.096 16.0869 16.6465 17.4354 16.232 18.41C15.8322 19.35 15.3882 20.1457 14.7139 20.5377C13.6537 21.1541 12.3442 21.1541 11.284 20.5377C10.6096 20.1457 10.1657 19.35 9.76583 18.41C9.35132 17.4354 8.90184 16.0869 8.32338 14.3515L8.31105 14.3145C8.10838 13.7065 8.04661 13.5416 7.95909 13.4109C7.86114 13.2646 7.73545 13.1389 7.58913 13.0409C7.4584 12.9534 7.29348 12.8916 6.68549 12.689L6.64845 12.6766C4.91306 12.0982 3.56463 11.6487 2.59005 11.2342C1.64996 10.8343 0.854308 10.3904 0.462277 9.71603C-0.154093 8.65579 -0.154092 7.34634 0.462278 6.28611C0.854309 5.61177 1.64996 5.16781 2.59005 4.76797C3.56464 4.35345 4.91309 3.90397 6.64852 3.3255L11.7633 1.62057C13.8959 0.909699 15.5803 0.348219 16.8746 0.117969Z" fill="#AFB2BF"/>
</svg>
