<svg width="16" height="15" viewBox="0 0 16 15" fill="none" xmlns="http://www.w3.org/2000/svg">
<path d="M6.10203 3.1055C6.94646 1.59067 7.36868 0.833252 7.99992 0.833252C8.63116 0.833252 9.05338 1.59067 9.89781 3.1055L10.1163 3.49741C10.3562 3.92788 10.4762 4.14311 10.6633 4.28512C10.8504 4.42714 11.0834 4.47985 11.5493 4.58528L11.9736 4.68127C13.6133 5.05229 14.4332 5.2378 14.6283 5.86507C14.8234 6.49235 14.2644 7.14597 13.1465 8.4532L12.8573 8.7914C12.5396 9.16288 12.3808 9.34861 12.3093 9.5784C12.2379 9.80818 12.2619 10.056 12.3099 10.5516L12.3537 11.0028C12.5227 12.747 12.6072 13.6191 12.0965 14.0067C11.5858 14.3944 10.8181 14.0409 9.2828 13.334L8.8856 13.1511C8.4493 12.9503 8.23115 12.8498 7.99992 12.8498C7.76868 12.8498 7.55054 12.9503 7.11424 13.1511L6.71703 13.334C5.1817 14.0409 4.41404 14.3944 3.90335 14.0067C3.39267 13.6191 3.47717 12.747 3.64618 11.0029L3.68991 10.5516C3.73794 10.056 3.76195 9.80818 3.69049 9.5784C3.61904 9.34861 3.4602 9.16288 3.14253 8.7914L2.85332 8.4532C1.73542 7.14597 1.17647 6.49235 1.37153 5.86507C1.5666 5.2378 2.38649 5.05229 4.02628 4.68127L4.45051 4.58528C4.91649 4.47985 5.14947 4.42714 5.33655 4.28512C5.52362 4.14311 5.6436 3.92788 5.88356 3.49741L6.10203 3.1055Z" fill="#FDF41A" stroke="#FDF41A" stroke-width="1.5"/>
</svg>
